<mxfile host="app.diagrams.net" agent="Mozilla/5.0 (X11; Ubuntu; Linux x86_64; rv:132.0) Gecko/20100101 Firefox/132.0" version="26.0.9">
  <diagram name="Page-1" id="pe4H1gP7R0C1hcQly128">
    <mxGraphModel dx="1364" dy="795" grid="1" gridSize="10" guides="1" tooltips="1" connect="1" arrows="1" fold="1" page="1" pageScale="1" pageWidth="850" pageHeight="1100" math="0" shadow="0">
      <root>
        <mxCell id="0" />
        <mxCell id="1" parent="0" />
        <mxCell id="IS4CVZlZhYQrrgRnSbu5-3" value="" style="edgeStyle=orthogonalEdgeStyle;rounded=0;orthogonalLoop=1;jettySize=auto;html=1;" edge="1" parent="1" source="IS4CVZlZhYQrrgRnSbu5-1" target="IS4CVZlZhYQrrgRnSbu5-2">
          <mxGeometry relative="1" as="geometry" />
        </mxCell>
        <mxCell id="IS4CVZlZhYQrrgRnSbu5-1" value="start" style="ellipse;whiteSpace=wrap;html=1;" vertex="1" parent="1">
          <mxGeometry x="365" y="10" width="120" height="80" as="geometry" />
        </mxCell>
        <mxCell id="IS4CVZlZhYQrrgRnSbu5-7" value="" style="edgeStyle=orthogonalEdgeStyle;rounded=0;orthogonalLoop=1;jettySize=auto;html=1;" edge="1" parent="1" source="IS4CVZlZhYQrrgRnSbu5-2" target="IS4CVZlZhYQrrgRnSbu5-6">
          <mxGeometry relative="1" as="geometry" />
        </mxCell>
        <mxCell id="IS4CVZlZhYQrrgRnSbu5-2" value="&lt;div&gt;sum = 0,&lt;/div&gt;&lt;div&gt;counter = 0&lt;br&gt;&lt;/div&gt;" style="whiteSpace=wrap;html=1;" vertex="1" parent="1">
          <mxGeometry x="365" y="180" width="120" height="60" as="geometry" />
        </mxCell>
        <mxCell id="IS4CVZlZhYQrrgRnSbu5-9" value="" style="edgeStyle=orthogonalEdgeStyle;rounded=0;orthogonalLoop=1;jettySize=auto;html=1;" edge="1" parent="1" source="IS4CVZlZhYQrrgRnSbu5-6" target="IS4CVZlZhYQrrgRnSbu5-8">
          <mxGeometry relative="1" as="geometry" />
        </mxCell>
        <mxCell id="IS4CVZlZhYQrrgRnSbu5-6" value="read A, B" style="shape=parallelogram;perimeter=parallelogramPerimeter;whiteSpace=wrap;html=1;fixedSize=1;" vertex="1" parent="1">
          <mxGeometry x="365" y="320" width="120" height="60" as="geometry" />
        </mxCell>
        <mxCell id="IS4CVZlZhYQrrgRnSbu5-11" value="" style="edgeStyle=orthogonalEdgeStyle;rounded=0;orthogonalLoop=1;jettySize=auto;html=1;" edge="1" parent="1" source="IS4CVZlZhYQrrgRnSbu5-8" target="IS4CVZlZhYQrrgRnSbu5-10">
          <mxGeometry relative="1" as="geometry" />
        </mxCell>
        <mxCell id="IS4CVZlZhYQrrgRnSbu5-31" value="TRUE" style="edgeLabel;html=1;align=center;verticalAlign=middle;resizable=0;points=[];" vertex="1" connectable="0" parent="IS4CVZlZhYQrrgRnSbu5-11">
          <mxGeometry x="-0.0857" y="-2" relative="1" as="geometry">
            <mxPoint as="offset" />
          </mxGeometry>
        </mxCell>
        <mxCell id="IS4CVZlZhYQrrgRnSbu5-23" value="" style="edgeStyle=orthogonalEdgeStyle;rounded=0;orthogonalLoop=1;jettySize=auto;html=1;" edge="1" parent="1" source="IS4CVZlZhYQrrgRnSbu5-8" target="IS4CVZlZhYQrrgRnSbu5-22">
          <mxGeometry relative="1" as="geometry" />
        </mxCell>
        <mxCell id="IS4CVZlZhYQrrgRnSbu5-30" value="FALSE" style="edgeLabel;html=1;align=center;verticalAlign=middle;resizable=0;points=[];" vertex="1" connectable="0" parent="IS4CVZlZhYQrrgRnSbu5-23">
          <mxGeometry x="-0.2348" y="1" relative="1" as="geometry">
            <mxPoint as="offset" />
          </mxGeometry>
        </mxCell>
        <mxCell id="IS4CVZlZhYQrrgRnSbu5-8" value="&lt;div&gt;(A &amp;gt; 0 and A % 1 == 0),&lt;/div&gt;&lt;div&gt;(B &amp;gt; 0 and B % 1 == 0)&lt;/div&gt;&lt;div&gt;and A &amp;lt; B&lt;br&gt;&lt;/div&gt;" style="rhombus;whiteSpace=wrap;html=1;" vertex="1" parent="1">
          <mxGeometry x="340" y="450" width="170" height="110" as="geometry" />
        </mxCell>
        <mxCell id="IS4CVZlZhYQrrgRnSbu5-13" value="" style="edgeStyle=orthogonalEdgeStyle;rounded=0;orthogonalLoop=1;jettySize=auto;html=1;" edge="1" parent="1" source="IS4CVZlZhYQrrgRnSbu5-10" target="IS4CVZlZhYQrrgRnSbu5-12">
          <mxGeometry relative="1" as="geometry" />
        </mxCell>
        <mxCell id="IS4CVZlZhYQrrgRnSbu5-10" value="counter = A" style="whiteSpace=wrap;html=1;" vertex="1" parent="1">
          <mxGeometry x="365" y="665" width="120" height="60" as="geometry" />
        </mxCell>
        <mxCell id="IS4CVZlZhYQrrgRnSbu5-15" value="" style="edgeStyle=orthogonalEdgeStyle;rounded=0;orthogonalLoop=1;jettySize=auto;html=1;" edge="1" parent="1" source="IS4CVZlZhYQrrgRnSbu5-12" target="IS4CVZlZhYQrrgRnSbu5-14">
          <mxGeometry relative="1" as="geometry" />
        </mxCell>
        <mxCell id="IS4CVZlZhYQrrgRnSbu5-33" value="FALSE" style="edgeLabel;html=1;align=center;verticalAlign=middle;resizable=0;points=[];" vertex="1" connectable="0" parent="IS4CVZlZhYQrrgRnSbu5-15">
          <mxGeometry x="-0.1111" y="1" relative="1" as="geometry">
            <mxPoint as="offset" />
          </mxGeometry>
        </mxCell>
        <mxCell id="IS4CVZlZhYQrrgRnSbu5-21" value="" style="edgeStyle=orthogonalEdgeStyle;rounded=0;orthogonalLoop=1;jettySize=auto;html=1;" edge="1" parent="1" source="IS4CVZlZhYQrrgRnSbu5-12" target="IS4CVZlZhYQrrgRnSbu5-20">
          <mxGeometry relative="1" as="geometry" />
        </mxCell>
        <mxCell id="IS4CVZlZhYQrrgRnSbu5-35" value="TRUE" style="edgeLabel;html=1;align=center;verticalAlign=middle;resizable=0;points=[];" vertex="1" connectable="0" parent="IS4CVZlZhYQrrgRnSbu5-21">
          <mxGeometry x="-0.2857" y="-4" relative="1" as="geometry">
            <mxPoint as="offset" />
          </mxGeometry>
        </mxCell>
        <mxCell id="IS4CVZlZhYQrrgRnSbu5-12" value="counter &amp;gt; B" style="rhombus;whiteSpace=wrap;html=1;" vertex="1" parent="1">
          <mxGeometry x="385" y="795" width="80" height="80" as="geometry" />
        </mxCell>
        <mxCell id="IS4CVZlZhYQrrgRnSbu5-17" value="" style="edgeStyle=orthogonalEdgeStyle;rounded=0;orthogonalLoop=1;jettySize=auto;html=1;" edge="1" parent="1" source="IS4CVZlZhYQrrgRnSbu5-14" target="IS4CVZlZhYQrrgRnSbu5-16">
          <mxGeometry relative="1" as="geometry" />
        </mxCell>
        <mxCell id="IS4CVZlZhYQrrgRnSbu5-14" value="sum = sum + counter " style="whiteSpace=wrap;html=1;" vertex="1" parent="1">
          <mxGeometry x="365" y="965" width="120" height="60" as="geometry" />
        </mxCell>
        <mxCell id="IS4CVZlZhYQrrgRnSbu5-19" style="edgeStyle=orthogonalEdgeStyle;rounded=0;orthogonalLoop=1;jettySize=auto;html=1;exitX=1;exitY=0.5;exitDx=0;exitDy=0;entryX=1;entryY=0.5;entryDx=0;entryDy=0;" edge="1" parent="1" source="IS4CVZlZhYQrrgRnSbu5-16" target="IS4CVZlZhYQrrgRnSbu5-12">
          <mxGeometry relative="1" as="geometry" />
        </mxCell>
        <mxCell id="IS4CVZlZhYQrrgRnSbu5-16" value="counter += 1" style="whiteSpace=wrap;html=1;" vertex="1" parent="1">
          <mxGeometry x="365" y="1105" width="120" height="60" as="geometry" />
        </mxCell>
        <mxCell id="IS4CVZlZhYQrrgRnSbu5-27" style="edgeStyle=orthogonalEdgeStyle;rounded=0;orthogonalLoop=1;jettySize=auto;html=1;exitX=0;exitY=0.5;exitDx=0;exitDy=0;entryX=1;entryY=0.5;entryDx=0;entryDy=0;" edge="1" parent="1" source="IS4CVZlZhYQrrgRnSbu5-20" target="IS4CVZlZhYQrrgRnSbu5-24">
          <mxGeometry relative="1" as="geometry" />
        </mxCell>
        <mxCell id="IS4CVZlZhYQrrgRnSbu5-20" value="write sum" style="shape=parallelogram;perimeter=parallelogramPerimeter;whiteSpace=wrap;html=1;fixedSize=1;" vertex="1" parent="1">
          <mxGeometry x="205" y="805" width="120" height="60" as="geometry" />
        </mxCell>
        <mxCell id="IS4CVZlZhYQrrgRnSbu5-28" style="edgeStyle=orthogonalEdgeStyle;rounded=0;orthogonalLoop=1;jettySize=auto;html=1;exitX=0;exitY=0.5;exitDx=0;exitDy=0;entryX=0.5;entryY=0;entryDx=0;entryDy=0;" edge="1" parent="1" source="IS4CVZlZhYQrrgRnSbu5-22" target="IS4CVZlZhYQrrgRnSbu5-24">
          <mxGeometry relative="1" as="geometry" />
        </mxCell>
        <mxCell id="IS4CVZlZhYQrrgRnSbu5-22" value="write &quot;Error wrong numbers parameters&quot;" style="shape=parallelogram;perimeter=parallelogramPerimeter;whiteSpace=wrap;html=1;fixedSize=1;" vertex="1" parent="1">
          <mxGeometry x="100" y="475" width="135" height="60" as="geometry" />
        </mxCell>
        <mxCell id="IS4CVZlZhYQrrgRnSbu5-29" style="edgeStyle=orthogonalEdgeStyle;rounded=0;orthogonalLoop=1;jettySize=auto;html=1;exitX=0.5;exitY=1;exitDx=0;exitDy=0;entryX=0.5;entryY=0;entryDx=0;entryDy=0;" edge="1" parent="1" source="IS4CVZlZhYQrrgRnSbu5-24" target="IS4CVZlZhYQrrgRnSbu5-25">
          <mxGeometry relative="1" as="geometry" />
        </mxCell>
        <mxCell id="IS4CVZlZhYQrrgRnSbu5-24" value="" style="ellipse;whiteSpace=wrap;html=1;aspect=fixed;" vertex="1" parent="1">
          <mxGeometry x="68" y="965" width="25" height="25" as="geometry" />
        </mxCell>
        <mxCell id="IS4CVZlZhYQrrgRnSbu5-25" value="end" style="ellipse;whiteSpace=wrap;html=1;" vertex="1" parent="1">
          <mxGeometry x="21" y="1095" width="120" height="80" as="geometry" />
        </mxCell>
      </root>
    </mxGraphModel>
  </diagram>
</mxfile>
